Coordinates
version=1
nRows=33
nColumns=21
inDegrees=yes

Units are S.I. units (second, meters, Newtons, ...)
If the header above contains a line with 'inDegrees', this indicates whether rotational values are in degrees (yes) or radians (no).

endheader
time	bJoint_3	seatpos	slocangle	soarinout	sblpos	plocangle	poarinout	pblpos	hipangle	kneeangle	footangle	lbackangle	uarmleft_out	uarmleft_trn	uarmleft_up	se_inout	se_updown	handleleft_out	handleleft_trn	handleleft_up
      3.48500000	     -0.00000011	     -0.00856374	    -16.42003146	     13.89656230	    -13.89656230	    -17.57848283	     11.84877035	    -11.84877035	     89.12736182	     13.11793216	     12.24529397	    -29.13165320	     46.59091197	     14.82144449	    112.57392674	     24.52823081	    -14.94389773	    -17.66406317	   -116.70199429	    -39.14751819
      3.49000000	     -0.00000011	     -0.00954853	    -16.05537897	     13.89491118	    -13.89491118	    -17.24352477	     11.85596272	    -11.85596272	     88.58087166	     14.14112785	     12.72199951	    -28.77092654	     46.10495387	     15.40267416	    113.11758074	     23.75260689	    -14.05817712	    -18.04979532	   -117.20761761	    -39.64082622
      3.49500000	     -0.00000012	     -0.01054700	    -15.71107728	     13.89890182	    -13.89890182	    -16.90814259	     11.86275868	    -11.86275868	     88.06470008	     15.10827818	     13.17297826	    -28.41038203	     45.59620593	     15.81426097	    113.58284523	     23.07561284	    -13.53976764	    -18.28943232	   -117.70723842	    -40.16287244
      3.50000000	     -0.00000012	     -0.01162890	    -15.35310931	     13.89787482	    -13.89787482	    -16.57238853	     11.86918332	    -11.86918332	     87.54053511	     16.09111663	     13.63165174	    -27.97845879	     45.34534241	     16.21210069	    113.92725100	     22.86359207	    -12.96414461	    -18.40065852	   -117.91996685	    -40.54592097
      3.50500000	     -0.00000012	     -0.01218276	    -15.00534239	     13.89959157	    -13.89959157	    -16.29979835	     11.87147922	    -11.87147922	     87.28429167	     16.57184655	     13.85613821	    -27.56021892	     44.82618627	     16.62703762	    114.38238895	     22.21438584	    -12.43572642	    -18.62480478	   -118.41175578	    -41.04835499
      3.51000000	     -0.00000012	     -0.01317716	    -14.64218609	     13.89541621	    -13.89541621	    -15.96346188	     11.87719356	    -11.87719356	     86.84206657	     17.40188886	     14.24395543	    -27.19945503	     44.31840476	     17.22020109	    114.86367518	     21.36220395	    -11.57288772	    -18.97922777	   -118.93807866	    -41.48685910
      3.51500000	     -0.00000012	     -0.01416650	    -14.29823656	     13.89715717	    -13.89715717	    -15.62683053	     11.88250586	    -11.88250586	     86.42219637	     18.19043637	     14.61263274	    -26.83813300	     43.78811281	     17.63973441	    115.27493269	     20.62492835	    -11.07741041	    -19.18374498	   -119.45156139	    -41.95568107
      3.52000000	     -0.00000012	     -0.01510510	    -13.93253427	     13.89967842	    -13.89967842	    -15.28988982	     11.88742915	    -11.88742915	     86.04011866	     18.90839808	     14.94851674	    -26.41514173	     43.33053795	     18.04695249	    115.62789786	     20.07460575	    -10.58331865	    -19.34038049	   -119.84882911	    -42.40475853
      3.52500000	     -0.00000012	     -0.01608238	    -13.58872059	     13.90023582	    -13.90023582	    -14.95266665	     11.89195435	    -11.89195435	     85.65720291	     19.62830694	     15.28550985	    -26.05277842	     42.78756588	     18.47206975	    116.00443967	     19.30413924	    -10.09955825	    -19.54307223	   -120.36407592	    -42.85996946
      3.53000000	     -0.00000012	     -0.01705465	    -13.24537602	     13.90046897	    -13.90046897	    -14.61520991	     11.89608962	    -11.89608962	     85.28976466	     20.31946597	     15.60923064	    -25.68980122	     42.23911063	     18.89916285	    116.36486724	     18.52016550	     -9.62302390	    -19.73934081	   -120.88127193	    -43.30398923
      3.53500000	     -0.00000012	     -0.01806563	    -12.86901648	     13.88677270	    -13.88677270	    -14.27752970	     11.89969504	    -11.89969504	     84.92056118	     21.01428831	     15.93484949	    -25.25396216	     41.65237618	     19.27915703	    116.76919787	     17.76445532	     -9.28415863	    -19.88115012	   -121.44179255	    -43.84914728
      3.54000000	     -0.00000012	     -0.01906796	    -12.49092908	     13.87227825	    -13.87227825	    -13.93958418	     11.90314844	    -11.90314844	     84.56623979	     21.68142522	     16.24766500	    -24.81580703	     41.36735915	     19.87850171	    117.05446424	     17.27709224	     -8.34875079	    -20.15229485	   -121.69261995	    -44.14706083
      3.54500000	     -0.00000012	     -0.02094235	    -12.12032061	     13.89880027	    -13.89880027	    -13.61711956	     11.91910823	    -11.91910823	     83.93143891	     22.87744997	     16.80888888	    -24.52415463	     40.83705734	     20.34742605	    117.26031495	     16.46964019	     -7.81797275	    -20.30725283	   -122.12964649	    -44.47745014
      3.55000000	     -0.00000012	     -0.02192514	    -11.74426517	     13.88234172	    -13.88234172	    -13.21374159	     11.92475183	    -11.92475183	     83.61155436	     23.48052271	     17.09207707	    -24.08629555	     40.22573041	     20.73672917	    117.61855021	     15.65658645	     -7.49155916	    -20.44416114	   -122.70235319	    -44.99928476
      3.55500000	     -0.00000013	     -0.02283569	    -11.37683271	     13.86883350	    -13.86883350	    -12.87491514	     11.92681049	    -11.92681049	     83.32236546	     24.02594383	     17.34830929	    -23.65741547	     39.70708045	     21.19080613	    117.91747173	     14.92402465	     -6.98111651	    -20.61687366	   -123.17185191	    -45.41780999
      3.56000000	     -0.00000013	     -0.02484930	    -11.00312727	     13.88402857	    -13.88402857	    -12.53593577	     11.92848254	    -11.92848254	     82.70511597	     25.19079057	     17.89590654	    -23.34273532	     39.25587177	     21.58867649	    118.07778777	     14.29691373	     -6.56112110	    -20.69051739	   -123.52441128	    -45.74075272
      3.56500000	     -0.00000013	     -0.02607496	    -10.63924225	     13.88033534	    -13.88033534	    -12.19688261	     11.92974446	    -11.92974446	     82.34302856	     25.87454278	     18.21757134	    -22.95909585	     38.73355538	     22.03362094	    118.31379798	     13.54049552	     -6.07862234	    -20.83265095	   -123.98138192	    -46.10698462
      3.57000000	     -0.00000013	     -0.02792912	    -10.26034967	     13.85817799	    -13.85817799	    -11.79265566	     11.93336966	    -11.93336966	     81.81277965	     26.87642465	     18.68920430	    -22.60080761	     38.13823477	     22.43805198	    118.60036930	     12.63097908	     -5.78224338	    -20.95259662	   -124.56852442	    -46.59562469
      3.57500000	     -0.00000013	     -0.02892037	     -9.87191563	     13.86648610	    -13.86648610	    -11.46661703	     11.94693448	    -11.94693448	     81.53726553	     27.39726785	     18.93453338	    -22.14902784	     37.78607611	     22.91701497	    118.72120380	     12.22140428	     -5.08301565	    -21.06352986	   -124.76688571	    -46.81675344
      3.58000000	     -0.00000013	     -0.03076861	     -9.49253705	     13.85378809	    -13.85378809	    -11.06212644	     11.95007622	    -11.95007622	     81.03706792	     28.34333443	     19.38040235	    -21.79647542	     37.18539965	     23.32527976	    118.94422753	     11.31746041	     -4.77246968	    -21.17046115	   -125.32311693	    -47.25438658
      3.58500000	     -0.00000013	     -0.03293628	     -9.10161565	     13.85704197	    -13.85704197	    -10.72190163	     11.94900565	    -11.94900565	     80.47089142	     29.41492587	     19.88581729	    -21.47363604	     36.66945471	     23.83600710	    119.08559497	     10.45541749	     -4.20203784	    -21.31852097	   -125.78032789	    -47.55884470
      3.59000000	     -0.00000013	     -0.03393039	     -8.70334106	     13.86865833	    -13.86865833	    -10.31669882	     11.95052458	    -11.95052458	     80.21801651	     29.89378827	     20.11180478	    -21.01226041	     36.19420133	     24.24314712	    119.18189097	      9.94860680	     -3.70697257	    -21.36981157	   -126.05935699	    -47.83011642
      3.59500000	     -0.00000013	     -0.03578966	     -8.32744198	     13.84284578	    -13.84284578	     -9.98859600	     11.96242617	    -11.96242617	     79.75560611	     30.76984206	     20.52544817	    -20.65484577	     35.55867117	     24.66703454	    119.39338713	      8.94276747	     -3.41699969	    -21.49322926	   -126.67413362	    -48.28482131
      3.60000000	     -0.00000013	     -0.03793587	     -7.90181265	     13.82704293	    -13.82704293	     -9.58287997	     11.96289107	    -11.96289107	     79.23764740	     31.75174653	     20.98939392	    -20.25593756	     34.97317720	     25.15673571	    119.55016764	      8.03479148	     -2.94911972	    -21.60655232	   -127.19434391	    -48.67231141
      3.60500000	     -0.00000013	     -0.03982086	     -7.50746371	     13.84016767	    -13.84016767	     -9.24298914	     11.96060881	    -11.96060881	     78.79555163	     32.59034684	     21.38589846	    -19.89018270	     34.64354950	     25.64338999	    119.55970230	      7.56852800	     -2.23106049	    -21.70154488	   -127.37955157	    -48.81918844
      3.61000000	     -0.00000013	     -0.04197770	     -7.11085689	     13.83818868	    -13.83818868	     -8.83737722	     11.96001051	    -11.96001051	     78.30319475	     33.52483868	     21.82803342	    -19.54870341	     33.99457716	     26.10475260	    119.65563491	      6.55369687	     -1.85130116	    -21.80761159	   -127.94585209	    -49.17324845
      3.61500000	     -0.00000013	     -0.04383533	     -6.73703010	     13.82004671	    -13.82004671	     -8.44157277	     11.97218758	    -11.97218758	     77.88982934	     34.30985384	     22.19968318	    -19.19472211	     33.32547890	     26.53795208	    119.77737250	      5.50268373	     -1.56020987	    -21.92033683	   -128.55756614	    -49.57363899
      3.62000000	     -0.00000013	     -0.04596249	     -6.31229351	     13.80244166	    -13.80244166	     -8.03566209	     11.97043575	    -11.97043575	     77.42773945	     35.18788525	     22.61562471	    -18.78044298	     32.92024041	     27.00474696	    119.84835778	      4.91746512	     -0.97101537	    -21.98018803	   -128.86817271	    -49.82933353
      3.62500000	     -0.00000013	     -0.04792123	     -5.91037187	     13.81126259	    -13.81126259	     -7.62992433	     11.96812803	    -11.96812803	     77.01212894	     35.97803603	     22.99016497	    -18.41598284	     32.27252540	     27.48462714	    119.86522379	      3.94927814	     -0.51338363	    -22.07554712	   -129.37993673	    -50.10377358
      3.63000000	     -0.00000013	     -0.04995975	     -5.48539462	     13.79884830	    -13.79884830	     -7.23266877	     11.97860303	    -11.97860303	     76.58899797	     36.78290898	     23.37190695	    -17.99871312	     31.81724119	     27.94094878	    119.90318717	      3.31889888	      0.04462467	    -22.12186599	   -129.71318081	    -50.34416182
      3.63500000	     -0.00000014	     -0.05187692	     -5.09074606	     13.79413997	    -13.79413997	     -6.82682213	     11.97510550	    -11.97510550	     76.19925496	     37.52465031	     23.72390528	    -17.62662456	     31.12041376	     28.41672677	    119.92162368	      2.25085139	      0.43653435	    -22.22722928	   -130.29580403	    -50.66139309
      3.64000000	     -0.00000014	     -0.05397870	     -4.63487994	     13.80882678	    -13.80882678	     -6.42869937	     11.98449364	    -11.98449364	     75.78056197	     38.32189228	     24.10245425	    -17.19530095	     30.69111987	     28.91287025	    119.86524564	      1.72772887	      1.17490750	    -22.24978257	   -130.52273343	    -50.76770522
      3.64500000	     -0.00000014	     -0.05605838	     -4.24398949	     13.80523626	    -13.80523626	     -6.02296038	     11.97983637	    -11.97983637	     75.37458000	     39.09533082	     24.46991082	    -16.84152359	     29.98901670	     29.38524060	    119.84471689	      0.63752539	      1.55737945	    -22.35102035	   -131.11044779	    -51.06770907
